PathFileType	4	(X/Y/Z)	C:\Users\Vitor Bertoli\OneDrive\Documents\Yolotestes\IMG_0211_Sports2D\IMG_0211_Sports2D_m_person00.trc
DataRate	CameraRate	NumFrames	NumMarkers	Units	OrigDataRate	OrigDataStartFrame	OrigNumFrames
116	116	11	22	m	116	54	436
Frame#	Time	Hip			RHip			RKnee			RAnkle			RBigToe			RSmallToe			RHeel			LHip			LKnee			LAnkle			LBigToe			LSmallToe			LHeel			Neck			Head			Nose			RShoulder			RElbow			RWrist			LShoulder			LElbow			LWrist		
		X1	Y1	Z1	X2	Y2	Z2	X3	Y3	Z3	X4	Y4	Z4	X5	Y5	Z5	X6	Y6	Z6	X7	Y7	Z7	X8	Y8	Z8	X9	Y9	Z9	X10	Y10	Z10	X11	Y11	Z11	X12	Y12	Z12	X13	Y13	Z13	X14	Y14	Z14	X15	Y15	Z15	X16	Y16	Z16	X17	Y17	Z17	X18	Y18	Z18	X19	Y19	Z19	X20	Y20	Z20	X21	Y21	Z21	X22	Y22	Z22
54	0.46551724137931033	1.9714969028597036	0.7401421556732414	0.0	1.8669073238195115	0.7633671397547639	0.0	1.8267534912882566	0.37710725995635824	0.0	1.5177607288380748	0.09378562073835661	0.0	1.5960782958197521	-0.04360346962233468	0.0	1.5395041547344142	-0.03708194761876523	0.0	1.4382890919919256	0.05646168287039508	0.0	2.0694977162627866	0.7449019527752327	0.0	2.274568379513278	0.49016333430324105	0.0	2.1883730324024633	0.08963311025667133	0.0	2.3543756092891055	-0.0016118165113517585	0.0	2.3492389183633775	0.019890835591123694	0.0	2.126954068883443	0.03633171800195583	0.0	2.291038344277743	1.0673900132144953	0.0	2.4828481163736043	1.2822610019699963	0.0	2.4752178234906785	1.1298052674553967	0.0	2.089400959078486	1.0565832900487484	0.0	1.8261244765664844	0.871539763673191	0.0	1.8162099162903296	0.5940990433362889	0.0	2.37083578687062	0.9880111805796621	0.0	2.39785343005132	0.7603245205783066	0.0	2.508541967589437	0.5618127546439461	0.0
55	0.47413793103448276	1.9716878401186053	0.7395424169827187	0.0	1.867143326667905	0.7625276737131244	0.0	1.826566515028298	0.3765051770754226	0.0	1.5176132053017277	0.0937866884173175	0.0	1.5963198582817544	-0.04349515378885477	0.0	1.539766716822667	-0.03706122006069878	0.0	1.4382248616078328	0.05648886961100011	0.0	2.0698995303398307	0.744161233655748	0.0	2.2750270381233344	0.4900736003348579	0.0	2.1885900631755106	0.08968067364508066	0.0	2.3543287994079103	-0.0016310810562422061	0.0	2.349287721006252	0.01999854129707268	0.0	2.1271627267858797	0.036559797924317045	0.0	2.2915059213294677	1.0675239985763845	0.0	2.482639450691644	1.2824660888317774	0.0	2.475581550112165	1.1299299555760187	0.0	2.0894264524268524	1.0566481267142351	0.0	1.8264607084159274	0.8718754888369706	0.0	1.8157097546592842	0.5946986260025117	0.0	2.3711425831029067	0.9879196882739878	0.0	2.398001104019968	0.760003828269939	0.0	2.508836467202605	0.5628582625901319	0.0
56	0.48275862068965514	1.9720540572644898	0.7388972518170985	0.0	1.8676150153006836	0.7616329144165886	0.0	1.8262876824406014	0.3757723800941525	0.0	1.5174102096465527	0.09376432511035208	0.0	1.5964464308611699	-0.043432405109508826	0.0	1.5398823337060423	-0.037080154956562514	0.0	1.4381637856460743	0.05646520126207273	0.0	2.0704022679087752	0.743432919133461	0.0	2.2755502796697846	0.489913402711469	0.0	2.1887361861968797	0.08966477604518826	0.0	2.354211847840397	-0.0017792550595715937	0.0	2.349272562226843	0.020028421757130207	0.0	2.127344156733337	0.03670223513279534	0.0	2.292065254994061	1.067646781981093	0.0	2.4825396915220765	1.282704122267008	0.0	2.4761147284562126	1.1300142867490148	0.0	2.0895540337043004	1.05665439730408	0.0	1.8268356236716354	0.87213881823883	0.0	1.8151969260248872	0.5952925755409026	0.0	2.3716097070498776	0.9879269829727824	0.0	2.398281143749725	0.7597867789774945	0.0	2.5093136123717956	0.5639695257694582	0.0
57	0.49137931034482757	1.9725938031801558	0.7382083568189143	0.0	1.868333976558466	0.7606875739702358	0.0	1.8259317277265068	0.3749005134656121	0.0	1.5171349223454467	0.09370596781516971	0.0	1.5964850957997658	-0.04342340905135776	0.0	1.5398844140338983	-0.03714989609477816	0.0	1.4380784077367976	0.05638710187256684	0.0	2.0709879601697914	0.7427526228813268	0.0	2.2761497535827178	0.4896672363563779	0.0	2.1887966275352215	0.08957955065474692	0.0	2.3540010861666127	-0.002043461586084409	0.0	2.34918151988874	0.01997269995060155	0.0	2.127462345267131	0.03674289247359828	0.0	2.292721909098881	1.0677765310158849	0.0	2.4825674481501245	1.2829893277067923	0.0	2.476802318795833	1.1300892298623224	0.0	2.0898407218612625	1.0566190059178144	0.0	1.827268955796954	0.8723225249771628	0.0	1.8146734141347678	0.595857493446033	0.0	2.3722388029566805	0.988031547082907	0.0	2.3986946157321274	0.7596916003372097	0.0	2.5099602580025446	0.5651085670085105	0.0
58	0.5	1.9732701878730352	0.7374859808232564	0.0	1.869265116376186	0.7597092901159818	0.0	1.825522327209776	0.37387791489614064	0.0	1.5167743020061175	0.09359224912473359	0.0	1.5964653895140686	-0.043476993306451946	0.0	1.539821500158856	-0.037274389881767754	0.0	1.4379400747825861	0.05624060175168668	0.0	2.071617024214371	0.7421452345764076	0.0	2.2768503111816654	0.4893211395946656	0.0	2.1887647296181885	0.08942454714501782	0.0	2.353697781777758	-0.002428183331201052	0.0	2.3490108232031903	0.01983049822178057	0.0	2.1274936078434123	0.036673635025664064	0.0	2.2934850780642106	1.0679217422716927	0.0	2.4827286623776432	1.283322956053436	0.0	2.477623054778511	1.1301802725150862	0.0	2.090347716027839	1.0565480745621851	0.0	1.8277947878484597	0.8724201199154353	0.0	1.8141445789613697	0.5963527831980341	0.0	2.3730199635667297	0.9882102156347944	0.0	2.399232036334661	0.7597226249127511	0.0	2.5107605754642894	0.5662334130879473	0.0
59	0.5086206896551724	1.9740350421089305	0.7367486285992694	0.0	1.870341193209991	0.7587323548197217	0.0	1.8250899676494114	0.372689352514242	0.0	1.516331178491092	0.09340383366902723	0.0	1.596401455092058	-0.04359378156870156	0.0	1.5397154694696122	-0.037443185496437804	0.0	1.437725577767588	0.05600885880786537	0.0	2.0722429109575295	0.7416210229135519	0.0	2.2776890216570433	0.4888601140257245	0.0	2.1886284727691487	0.08920854819900553	0.0	2.353321466705603	-0.0029340804908499435	0.0	2.348765488196989	0.019612751990577264	0.0	2.1274219131290124	0.03649819086070362	0.0	2.2943581572340963	1.0680839697160909	0.0	2.483029198658883	1.283705890998023	0.0	2.478553747938378	1.1303041851560338	0.0	2.091118579975539	1.0564430897279975	0.0	1.8284494178765416	0.8724205812357474	0.0	1.8136236584049694	0.5967235703876151	0.0	2.3739378676130536	0.9884331610187116	0.0	2.399879643034656	0.7598575860161347	0.0	2.5116972714095893	0.5672964800788736	0.0
60	0.5172413793103449	1.974851160396285	0.736013951058894	0.0	1.8714848728204798	0.7577836728948207	0.0	1.824668450412873	0.37132526892494283	0.0	1.5158237641826324	0.09312403891587406	0.0	1.5962901120493846	-0.043759944808612984	0.0	1.5395552952065175	-0.037632838137947176	0.0	1.4374302861263215	0.055676273997213775	0.0	2.0728228008779173	0.741167822639276	0.0	2.2787061253590637	0.4882739785740771	0.0	2.1883682173275965	0.08893730705006853	0.0	2.352891299699494	-0.003535815766105302	0.0	2.3484545104574943	0.019338004494125156	0.0	2.1272357350873863	0.03622985276353165	0.0	2.295333681647979	1.068265851200545	0.0	2.4834688314000264	1.2841515420090799	0.0	2.479573582409887	1.1304771116534487	0.0	2.092164976078395	1.0563066804713437	0.0	1.8292656358323054	0.8723038967800282	0.0	1.8131343731357137	0.596911147516338	0.0	2.374975563199109	0.9886769411121246	0.0	2.4006230111743005	0.7600524772719262	0.0	2.5127497337154883	0.5682497039758904	0.0
61	0.5258620689655172	1.975697881768111	0.7352903629342846	0.0	1.8726339392487006	0.7568641798724054	0.0	1.8242963798107228	0.3697814236567572	0.0	1.5152777157582302	0.09273240062731065	0.0	1.59611744281397	-0.04395622944934845	0.0	1.5393213317600611	-0.037822437363708356	0.0	1.4370722027848257	0.0552248798219828	0.0	2.0733265202959132	0.7407522958407469	0.0	2.2799339503571954	0.48756516555201745	0.0	2.1879711113988134	0.08861028846954729	0.0	2.3524211228025296	-0.004203549399834196	0.0	2.3480850506942987	0.019027745162950326	0.0	2.126940618123942	0.03588869053081667	0.0	2.29640534305786	1.068473106816309	0.0	2.484030314590974	1.2846803258137593	0.0	2.480668423648584	1.130718337491001	0.0	2.0934775503435072	1.056136041687633	0.0	1.8302836961776545	0.8720393096595387	0.0	1.8127077563839749	0.5968535358561186	0.0	2.3761099000748924	0.9889180600112648	0.0	2.401445418149858	0.7602553920412343	0.0	2.5138928723470317	0.5690466916321905	0.0
62	0.5344827586206896	1.9765748057839085	0.7345821665367186	0.0	1.8737701481013285	0.7559629546233141	0.0	1.8240186476485467	0.3680525771293577	0.0	1.5147261908236855	0.09220610010790671	0.0	1.5958675952782329	-0.044173892877709606	0.0	1.5390047228036505	-0.03800372766093173	0.0	1.4366842840940244	0.05464429852002305	0.0	2.073748144084146	0.7403407603983871	0.0	2.2813970707329325	0.48674467969531815	0.0	2.187445791273262	0.08823717397954553	0.0	2.3519346888504997	-0.0049274686642567615	0.0	2.34766727998345	0.0187015585097616	0.0	2.1265622470874925	0.03550232695763201	0.0	2.2975797604674915	1.0687070436594779	0.0	2.4846944725013667	1.2853064237841023	0.0	2.481833010150689	1.1310509933286197	0.0	2.0950421733608064	1.0559172057390613	0.0	1.8315543227214375	0.8715869305388515	0.0	1.8123786561461934	0.5964822295151976	0.0	2.377312797791303	0.9891328689274934	0.0	2.4023263736794775	0.7604148428292695	0.0	2.515096795616112	0.5696369735120892	0.0
63	0.5431034482758621	1.9774950792355024	0.7338988799803638	0.0	1.8749185947202665	0.7550768165759955	0.0	1.8238806298687078	0.36613030140987224	0.0	1.514210990761586	0.0915341686026242	0.0	1.5955289588365404	-0.04441604384556216	0.0	1.5386054304107408	-0.03817509369205607	0.0	1.4363066426411581	0.05395006836249827	0.0	2.074103314763189	0.7399185722877283	0.0	2.2831174891004307	0.4858258607630142	0.0	2.186823667181438	0.08784840728324533	0.0	2.351471223394046	-0.005689847109977192	0.0	2.3472278563718882	0.01837799413182003	0.0	2.126127305816963	0.03510435133849661	0.0	2.2988698842407542	1.0689621015358415	0.0	2.4854608032574657	1.2860375252292522	0.0	2.4830654592820505	1.1315051249596377	0.0	2.096841863453519	1.0556292127351086	0.0	1.8331195814079573	0.870899167769937	0.0	1.8121849451149958	0.595733720800245	0.0	2.378561915381705	0.9893135228467667	0.0	2.40324346750443	0.7604847157972535	0.0	2.516323530958419	0.5699638716900236	0.0
64	0.5517241379310345	1.9784605853836124	0.7332514321817274	0.0	1.8761079077632936	0.7542068290965313	0.0	1.8239204191024547	0.36400430616856794	0.0	1.5137744066632721	0.09072580116792696	0.0	1.595090789045341	-0.044686673969342436	0.0	1.538118413840959	-0.03833646957950798	0.0	1.4359833073102999	0.053177243701214794	0.0	2.07441309980116	0.7394869492230195	0.0	2.285113492250374	0.48482670347529633	0.0	2.186150292766803	0.08748605868176282	0.0	2.3510663008533554	-0.006441027138071504	0.0	2.346808480364374	0.018077727440767705	0.0	2.125652716885541	0.03472977875836897	0.0	2.300283598596829	1.069234606275889	0.0	2.4863373185991096	1.286879961530799	0.0	2.4843603629526525	1.1321118171064595	0.0	2.0988562107993403	1.0552509036346864	0.0	1.8350020248430412	0.8699206700396857	0.0	1.812167736681177	0.594562015943915	0.0	2.379847003929682	0.9894703771042034	0.0	2.404173002154305	0.7604328833211291	0.0	2.517524951040647	0.5699716850441404	0.0
